<svg width="1220" height="742" viewBox="0 0 1220 742" fill="none" xmlns="http://www.w3.org/2000/svg">
<path d="M945.561 323H941.307V302.451L935.031 304.596V300.992L945.016 297.318H945.561V323ZM971.137 312.225C971.137 315.904 970.445 318.682 969.062 320.557C967.691 322.42 965.6 323.352 962.787 323.352C960.021 323.352 957.936 322.443 956.529 320.627C955.135 318.799 954.42 316.098 954.385 312.523V308.094C954.385 304.414 955.07 301.654 956.441 299.814C957.824 297.975 959.928 297.055 962.752 297.055C965.553 297.055 967.639 297.951 969.01 299.744C970.393 301.537 971.102 304.221 971.137 307.795V312.225ZM966.865 307.443C966.865 305.041 966.537 303.283 965.881 302.17C965.225 301.045 964.182 300.482 962.752 300.482C961.357 300.482 960.332 301.016 959.676 302.082C959.02 303.137 958.674 304.789 958.639 307.039V312.84C958.639 315.23 958.973 317.012 959.641 318.184C960.309 319.355 961.357 319.941 962.787 319.941C964.158 319.941 965.172 319.402 965.828 318.324C966.484 317.234 966.83 315.535 966.865 313.227V307.443ZM991.598 312.225C991.598 315.904 990.906 318.682 989.523 320.557C988.152 322.42 986.061 323.352 983.248 323.352C980.482 323.352 978.396 322.443 976.99 320.627C975.596 318.799 974.881 316.098 974.846 312.523V308.094C974.846 304.414 975.531 301.654 976.902 299.814C978.285 297.975 980.389 297.055 983.213 297.055C986.014 297.055 988.1 297.951 989.471 299.744C990.854 301.537 991.562 304.221 991.598 307.795V312.225ZM987.326 307.443C987.326 305.041 986.998 303.283 986.342 302.17C985.686 301.045 984.643 300.482 983.213 300.482C981.818 300.482 980.793 301.016 980.137 302.082C979.48 303.137 979.135 304.789 979.1 307.039V312.84C979.1 315.23 979.434 317.012 980.102 318.184C980.77 319.355 981.818 319.941 983.248 319.941C984.619 319.941 985.633 319.402 986.289 318.324C986.945 317.234 987.291 315.535 987.326 313.227V307.443ZM1012.06 312.225C1012.06 315.904 1011.37 318.682 1009.98 320.557C1008.61 322.42 1006.52 323.352 1003.71 323.352C1000.94 323.352 998.857 322.443 997.451 320.627C996.057 318.799 995.342 316.098 995.307 312.523V308.094C995.307 304.414 995.992 301.654 997.363 299.814C998.746 297.975 1000.85 297.055 1003.67 297.055C1006.47 297.055 1008.56 297.951 1009.93 299.744C1011.31 301.537 1012.02 304.221 1012.06 307.795V312.225ZM1007.79 307.443C1007.79 305.041 1007.46 303.283 1006.8 302.17C1006.15 301.045 1005.1 300.482 1003.67 300.482C1002.28 300.482 1001.25 301.016 1000.6 302.082C999.941 303.137 999.596 304.789 999.561 307.039V312.84C999.561 315.23 999.895 317.012 1000.56 318.184C1001.23 319.355 1002.28 319.941 1003.71 319.941C1005.08 319.941 1006.09 319.402 1006.75 318.324C1007.41 317.234 1007.75 315.535 1007.79 313.227V307.443Z" fill="black"/>
<path d="M929.344 673.156C929.344 674.41 929.021 675.529 928.377 676.514C927.732 677.486 926.854 678.254 925.74 678.816C927.076 679.438 928.102 680.287 928.816 681.365C929.543 682.443 929.906 683.662 929.906 685.021C929.906 687.271 929.145 689.059 927.621 690.383C926.098 691.695 924.07 692.352 921.539 692.352C918.996 692.352 916.957 691.689 915.422 690.365C913.898 689.041 913.137 687.26 913.137 685.021C913.137 683.65 913.5 682.42 914.227 681.33C914.953 680.24 915.973 679.402 917.285 678.816C916.184 678.254 915.311 677.486 914.666 676.514C914.033 675.529 913.717 674.41 913.717 673.156C913.717 670.977 914.42 669.248 915.826 667.971C917.232 666.693 919.131 666.055 921.521 666.055C923.924 666.055 925.828 666.693 927.234 667.971C928.641 669.248 929.344 670.977 929.344 673.156ZM925.635 684.811C925.635 683.545 925.254 682.525 924.492 681.752C923.742 680.967 922.746 680.574 921.504 680.574C920.262 680.574 919.266 680.961 918.516 681.734C917.777 682.508 917.408 683.533 917.408 684.811C917.408 686.064 917.771 687.066 918.498 687.816C919.236 688.566 920.25 688.941 921.539 688.941C922.828 688.941 923.83 688.578 924.545 687.852C925.271 687.125 925.635 686.111 925.635 684.811ZM925.09 673.314C925.09 672.201 924.768 671.287 924.123 670.572C923.479 669.846 922.611 669.482 921.521 669.482C920.432 669.482 919.57 669.828 918.938 670.52C918.305 671.199 917.988 672.131 917.988 673.314C917.988 674.486 918.305 675.418 918.938 676.109C919.582 676.801 920.449 677.146 921.539 677.146C922.629 677.146 923.49 676.801 924.123 676.109C924.768 675.418 925.09 674.486 925.09 673.314ZM950.367 681.225C950.367 684.904 949.676 687.682 948.293 689.557C946.922 691.42 944.83 692.352 942.018 692.352C939.252 692.352 937.166 691.443 935.76 689.627C934.365 687.799 933.65 685.098 933.615 681.523V677.094C933.615 673.414 934.301 670.654 935.672 668.814C937.055 666.975 939.158 666.055 941.982 666.055C944.783 666.055 946.869 666.951 948.24 668.744C949.623 670.537 950.332 673.221 950.367 676.795V681.225ZM946.096 676.443C946.096 674.041 945.768 672.283 945.111 671.17C944.455 670.045 943.412 669.482 941.982 669.482C940.588 669.482 939.562 670.016 938.906 671.082C938.25 672.137 937.904 673.789 937.869 676.039V681.84C937.869 684.23 938.203 686.012 938.871 687.184C939.539 688.355 940.588 688.941 942.018 688.941C943.389 688.941 944.402 688.402 945.059 687.324C945.715 686.234 946.061 684.535 946.096 682.227V676.443ZM970.828 681.225C970.828 684.904 970.137 687.682 968.754 689.557C967.383 691.42 965.291 692.352 962.479 692.352C959.713 692.352 957.627 691.443 956.221 689.627C954.826 687.799 954.111 685.098 954.076 681.523V677.094C954.076 673.414 954.762 670.654 956.133 668.814C957.516 666.975 959.619 666.055 962.443 666.055C965.244 666.055 967.33 666.951 968.701 668.744C970.084 670.537 970.793 673.221 970.828 676.795V681.225ZM966.557 676.443C966.557 674.041 966.229 672.283 965.572 671.17C964.916 670.045 963.873 669.482 962.443 669.482C961.049 669.482 960.023 670.016 959.367 671.082C958.711 672.137 958.365 673.789 958.33 676.039V681.84C958.33 684.23 958.664 686.012 959.332 687.184C960 688.355 961.049 688.941 962.479 688.941C963.85 688.941 964.863 688.402 965.52 687.324C966.176 686.234 966.521 684.535 966.557 682.227V676.443Z" fill="black"/>
<path d="M613.434 472H596.225V469.064L604.75 459.766C605.98 458.395 606.854 457.252 607.369 456.338C607.896 455.412 608.16 454.486 608.16 453.561C608.16 452.342 607.814 451.357 607.123 450.607C606.443 449.857 605.523 449.482 604.363 449.482C602.98 449.482 601.908 449.904 601.146 450.748C600.385 451.592 600.004 452.746 600.004 454.211H595.732C595.732 452.652 596.084 451.252 596.787 450.01C597.502 448.756 598.516 447.783 599.828 447.092C601.152 446.4 602.676 446.055 604.398 446.055C606.883 446.055 608.84 446.682 610.27 447.936C611.711 449.178 612.432 450.9 612.432 453.104C612.432 454.381 612.068 455.723 611.342 457.129C610.627 458.523 609.449 460.111 607.809 461.893L601.551 468.59H613.434V472ZM633.367 461.225C633.367 464.904 632.676 467.682 631.293 469.557C629.922 471.42 627.83 472.352 625.018 472.352C622.252 472.352 620.166 471.443 618.76 469.627C617.365 467.799 616.65 465.098 616.615 461.523V457.094C616.615 453.414 617.301 450.654 618.672 448.814C620.055 446.975 622.158 446.055 624.982 446.055C627.783 446.055 629.869 446.951 631.24 448.744C632.623 450.537 633.332 453.221 633.367 456.795V461.225ZM629.096 456.443C629.096 454.041 628.768 452.283 628.111 451.17C627.455 450.045 626.412 449.482 624.982 449.482C623.588 449.482 622.562 450.016 621.906 451.082C621.25 452.137 620.904 453.789 620.869 456.039V461.84C620.869 464.23 621.203 466.012 621.871 467.184C622.539 468.355 623.588 468.941 625.018 468.941C626.389 468.941 627.402 468.402 628.059 467.324C628.715 466.234 629.061 464.535 629.096 462.227V456.443ZM653.828 461.225C653.828 464.904 653.137 467.682 651.754 469.557C650.383 471.42 648.291 472.352 645.479 472.352C642.713 472.352 640.627 471.443 639.221 469.627C637.826 467.799 637.111 465.098 637.076 461.523V457.094C637.076 453.414 637.762 450.654 639.133 448.814C640.516 446.975 642.619 446.055 645.443 446.055C648.244 446.055 650.33 446.951 651.701 448.744C653.084 450.537 653.793 453.221 653.828 456.795V461.225ZM649.557 456.443C649.557 454.041 649.229 452.283 648.572 451.17C647.916 450.045 646.873 449.482 645.443 449.482C644.049 449.482 643.023 450.016 642.367 451.082C641.711 452.137 641.365 453.789 641.33 456.039V461.84C641.33 464.23 641.664 466.012 642.332 467.184C643 468.355 644.049 468.941 645.479 468.941C646.85 468.941 647.863 468.402 648.52 467.324C649.176 466.234 649.521 464.535 649.557 462.227V456.443Z" fill="black"/>
<path d="M517.667 476.727C514.754 479.672 514.781 484.421 517.727 487.333L565.727 534.791C568.673 537.703 573.421 537.676 576.333 534.731C579.246 531.785 579.219 527.037 576.273 524.124L533.606 481.94L575.791 439.273C578.703 436.327 578.676 431.579 575.731 428.667C572.785 425.754 568.037 425.781 565.124 428.727L517.667 476.727ZM698.957 473.5L522.957 474.5L523.043 489.5L699.043 488.5L698.957 473.5Z" fill="#F5DF4D"/>
<g clip-path="url(#clip0)">
<path d="M452.6 220.6H393.933V323H452.6V220.6Z" fill="#F05540"/>
<path d="M475 168.333H371.533V223.8H475V168.333Z" fill="#F3705A"/>
<path d="M55.7998 423.267V659H473.933V423.267C391.8 341.134 345.933 295.267 264.866 214.2C183.8 296.333 137.933 342.2 55.7998 423.267Z" fill="#FFD15C"/>
<path d="M475 423.267C392.867 341.134 347 295.267 265.933 214.2C224.333 254.733 192.333 286.733 160.333 318.733C128.333 350.733 96.3328 382.733 55.7998 423.266V471.266C137.933 389.133 183.8 343.266 264.867 262.199C347 344.332 392.867 390.199 473.934 471.266V477.666V423.266H475V423.267Z" fill="#F7B64C"/>
<path d="M227.533 659H101.667V535.267C101.667 500.067 130.467 472.334 164.6 472.334C199.8 472.334 227.533 501.134 227.533 535.267V659Z" fill="#415A6B"/>
<path d="M429.134 472.333H264.867V616.333H429.134V472.333Z" fill="#344A5E"/>
<path d="M338.466 489.4H281.933V599.267H338.466V489.4Z" fill="#8AD7F8"/>
<path d="M412.065 489.4H355.532V599.267H412.065V489.4Z" fill="#8AD7F8"/>
<path d="M513.4 379.533L290.467 156.6C277.667 143.8 255.267 143.8 242.467 156.6L20.6 379.533C7.8 392.333 7.8 414.733 20.6 427.533C33.4 440.333 55.8 440.333 68.6 427.533L267 229.133L465.4 427.533C478.2 440.333 500.6 440.333 513.4 427.533C526.2 413.667 526.2 392.333 513.4 379.533Z" fill="#F3705A"/>
</g>
<path d="M1209 254C1209 261.9 1192.2 267.5 1190.3 274.7C1188.3 282.2 1200 295.4 1196.2 302C1192.3 308.7 1175 305.1 1169.6 310.6C1164.2 316.1 1167.7 333.3 1161 337.2C1154.4 341 1141.2 329.3 1133.7 331.3C1126.4 333.2 1120.9 350 1113 350C1105.1 350 1099.5 333.2 1092.3 331.3C1084.8 329.3 1071.6 341 1065 337.2C1058.3 333.3 1061.9 316 1056.4 310.6C1050.9 305.2 1033.7 308.7 1029.8 302C1026 295.4 1037.7 282.2 1035.7 274.7C1033.8 267.4 1017 261.9 1017 254C1017 246.1 1033.8 240.5 1035.7 233.3C1037.7 225.8 1026 212.6 1029.8 206C1033.7 199.3 1051 202.9 1056.4 197.4C1061.8 191.9 1058.3 174.7 1065 170.8C1071.6 167 1084.8 178.7 1092.3 176.7C1099.5 174.8 1105.1 158 1113 158C1120.9 158 1126.5 174.8 1133.7 176.7C1141.2 178.7 1154.4 167 1161 170.8C1167.7 174.7 1164.1 192 1169.6 197.4C1175.1 202.8 1192.3 199.3 1196.2 206C1200 212.6 1188.3 225.8 1190.3 233.3C1192.2 240.5 1209 246.1 1209 254Z" fill="#FF750A"/>
<path d="M1114 299C1140.51 299 1162 277.51 1162 251C1162 224.49 1140.51 203 1114 203C1087.49 203 1066 224.49 1066 251C1066 277.51 1087.49 299 1114 299Z" fill="#FFD33A"/>
<path d="M940.001 203C938.901 203 937.801 203.1 936.801 203.2C928.101 182.9 904.601 173.5 884.301 182.2C874.901 186.2 867.401 193.8 863.301 203.2C862.201 203.1 861.101 203 860.101 203C846.801 203 836.101 213.7 836.101 227C836.101 240.3 846.801 251 860.101 251C864.401 251 868.601 249.9 872.201 247.7C887.701 262.8 912.401 262.8 927.901 247.7C939.301 254.4 954.001 250.6 960.701 239.1C967.401 227.6 963.601 213 952.101 206.3C948.501 204.1 944.301 203 940.001 203Z" fill="#A3D4F7"/>
<path d="M828 243C826.9 243 825.8 243.1 824.8 243.2C816.1 222.9 792.6 213.5 772.3 222.2C762.9 226.2 755.4 233.8 751.3 243.2C750.2 243.1 749.1 243 748 243C734.7 243 724 253.7 724 267C724 280.3 734.7 291 748 291C752.3 291 756.5 289.9 760.1 287.7C775.6 302.8 800.3 302.8 815.8 287.7C827.2 294.4 841.9 290.6 848.6 279.1C855.3 267.6 851.5 253 840 246.3C836.5 244.1 832.3 243 828 243Z" fill="#A3D4F7"/>
<path d="M964 491V643H932H724V491L828 339H860L964 491Z" fill="#F0DFCE"/>
<path d="M1156 483H932L903.1 443L891.5 427L868.4 395L856.8 379L828 339H1052L1080.9 379L1092.4 395L1115.5 427L1127 443L1156 483Z" fill="#3397E8"/>
<path d="M932 483H1156V643H932V483Z" fill="#FBE9D8"/>
<path d="M996 531H1092V579H996V531Z" fill="#996046"/>
<path d="M1036 531H1052V579H1036V531Z" fill="#B37A60"/>
<path d="M796 531H860V643H796V531Z" fill="#996046"/>
<path d="M1162.5 478.3L1071.5 352.3C1070.1 353.4 1068.2 353.8 1066.2 352.8C1057.2 348.4 1047.1 344.6 1043.3 334.5C1042.8 333.1 1042.9 332 1043.3 331H828C825.4 331 822.9 332.3 821.4 334.5L717.4 486.5C716.5 487.8 716 489.4 716 491V643C716 647.4 719.6 651 724 651H1156C1160.4 651 1164 647.4 1164 643V483C1164 481.3 1163.5 479.7 1162.5 478.3ZM1140.4 475H1088.1L1065 443H1117.3L1140.4 475ZM958.3 395H1010.6L1033.7 427H981.4L958.3 395ZM961.7 427H901.4L878.3 395H938.6L961.7 427ZM1045.2 443L1068.3 475H1016L993 443H1045.2ZM1105.7 427H1053.4L1030.3 395H1082.6L1105.7 427ZM1047.9 347L1071 379H1018.7L995.6 347H1047.9ZM975.9 347L999 379H946.7L923.6 347H975.9ZM903.9 347L927 379H866.7L843.6 347H903.9ZM852 635H804V539H852V635ZM924 635H868V531C868 526.6 864.4 523 860 523H796C791.6 523 788 526.6 788 531V635H732V493.5L828.2 352.9L924 485.6V635ZM913 443H973.3L996.4 475H936.1L913 443ZM1148 635H940V491H1148V635Z" fill="black"/>
<path d="M1115 198C1084.1 198 1059 223.1 1059 254C1059 284.9 1084.1 310 1115 310C1145.9 310 1171 284.9 1171 254C1171 223.1 1145.9 198 1115 198ZM1115 294C1092.9 294 1075 276.1 1075 254C1075 231.9 1092.9 214 1115 214C1137.1 214 1155 231.9 1155 254C1155 276.1 1137.1 294 1115 294Z" fill="black"/>
<path d="M812.001 467H828.001L813.601 486.2C810.901 489.7 811.701 494.7 815.201 497.4C818.701 500.1 823.701 499.3 826.401 495.8L850.401 463.8C853.101 460.3 852.301 455.3 848.801 452.6C847.401 451.6 845.701 451 844.001 451H828.001L842.401 431.8C845.101 428.3 844.301 423.3 840.801 420.6C837.301 417.9 832.301 418.7 829.601 422.2L805.601 454.2C802.901 457.7 803.701 462.7 807.201 465.4C808.601 466.4 810.301 467 812.001 467Z" fill="black"/>
<path d="M996 587H1092C1096.4 587 1100 583.4 1100 579V531C1100 526.6 1096.4 523 1092 523H996C991.6 523 988 526.6 988 531V579C988 583.4 991.6 587 996 587ZM1084 571H1052V539H1084V571ZM1004 539H1036V571H1004V539Z" fill="black"/>
<path d="M748 299C751.7 299 755.4 298.4 758.8 297.1C776 310.3 799.9 310.3 817.1 297.1C833.7 303.1 852.1 294.5 858 277.8C860.2 271.7 860.5 265.2 858.9 258.9C859.2 258.9 859.6 258.9 859.9 258.9C863.6 258.9 867.3 258.3 870.7 257C887.9 270.2 911.8 270.2 929 257C945.6 263 964 254.3 969.9 237.7C975.9 221.1 967.2 202.7 950.6 196.8C947.6 195.7 944.5 195.1 941.4 195C928.2 172 898.8 164.1 875.8 177.4C868.5 181.6 862.4 187.7 858.2 195C840.5 195.9 827 210.9 827.8 228.6C827.9 230.3 828.1 231.9 828.4 233.6C814.4 211.1 784.8 204.3 762.3 218.3C755.6 222.5 750.1 228.2 746.1 235C728.7 235.9 715.1 250.9 716 268.6C716.9 285.6 730.9 299 748 299ZM860 211C860.7 211 861.4 211.1 862.2 211.2C865.8 211.7 869.2 209.7 870.6 206.4C877.6 190.2 896.4 182.6 912.6 189.6C920.1 192.8 926.1 198.8 929.4 206.4C930.8 209.7 934.3 211.7 937.8 211.2C938.5 211.1 939.2 211.1 940 211C948.8 211 956 218.2 956 227C956 235.8 948.8 243 940 243C937.2 243 934.4 242.2 931.9 240.8C928.8 239 924.9 239.4 922.3 242C909.9 254.1 890.1 254.1 877.7 242C875.1 239.5 871.2 239 868.1 240.8C860.5 245.3 850.7 242.7 846.2 235.1C841.7 227.5 844.3 217.7 851.9 213.2C854.4 211.8 857.2 211 860 211ZM748 251C748.7 251 749.4 251.1 750.2 251.2C753.8 251.7 757.2 249.7 758.6 246.4C765.6 230.2 784.4 222.6 800.6 229.6C808.1 232.8 814.1 238.8 817.4 246.4C818.8 249.7 822.3 251.7 825.8 251.2C826.5 251.1 827.2 251.1 828 251C836.8 251 844 258.2 844 267C844 275.8 836.8 283 828 283C825.2 283 822.4 282.2 819.9 280.8C816.8 279 812.9 279.4 810.3 282C797.9 294 778.1 294 765.7 282C763.1 279.5 759.2 279 756.1 280.8C748.5 285.3 738.7 282.7 734.2 275.1C729.7 267.5 732.3 257.7 739.9 253.2C742.4 251.8 745.2 251 748 251Z" fill="black"/>
<path d="M1206.4 270.6C1212.1 266.4 1219.3 261.1 1219.3 252.8C1219.3 244.5 1212.2 239.3 1206.4 235C1204.4 233.6 1201.2 231.2 1200.3 229.9C1200.4 228.3 1202.1 224.5 1203.1 222.1C1205.9 215.7 1209.4 207.7 1205.3 200.7C1201.2 193.6 1192.5 192.7 1185.5 191.9C1183 191.6 1178.9 191.2 1177.5 190.5C1176.8 189.1 1176.4 185 1176.1 182.5C1175.3 175.5 1174.3 166.8 1167.3 162.7C1160.3 158.7 1152.3 162.1 1145.9 164.9C1143.6 165.9 1139.7 167.6 1138.1 167.7C1136.8 166.8 1134.5 163.6 1133 161.6C1128.8 155.9 1123.5 148.7 1115.2 148.7C1106.9 148.7 1101.7 155.8 1097.4 161.6C1096 163.6 1093.6 166.8 1092.3 167.7C1090.7 167.6 1086.9 165.9 1084.5 164.9C1078.1 162.1 1070.1 158.6 1063.1 162.7C1056.1 166.8 1055.1 175.5 1054.3 182.5C1054 185 1053.6 189.1 1052.9 190.5C1051.5 191.2 1047.4 191.6 1044.9 191.9C1037.9 192.7 1029.2 193.7 1025.1 200.7C1021.1 207.7 1024.5 215.7 1027.3 222.1C1028.3 224.4 1030 228.3 1030.1 229.9C1029.2 231.2 1026 233.5 1024 235C1018.3 239.2 1011.1 244.5 1011.1 252.8C1011.1 261.1 1018.2 266.3 1024 270.6C1026 272 1029.2 274.4 1030.1 275.7C1030 277.3 1028.3 281.1 1027.3 283.5C1024.5 289.9 1021 297.9 1025.1 304.9C1029.2 312 1037.9 312.9 1044.9 313.7C1047.4 314 1051.5 314.4 1052.9 315.1C1053.5 316.4 1054 319.8 1054.2 322.3C1056.4 322 1058.9 323 1059.9 325.6C1062.4 332.2 1072.5 335.1 1078.2 337.9C1080.2 338.9 1080.9 340.5 1080.7 342.1C1081.9 341.6 1083.2 341.1 1084.4 340.6C1086.8 339.6 1090.6 337.9 1092.2 337.8C1093.5 338.7 1095.8 341.9 1097.3 343.9C1101.5 349.6 1106.8 356.8 1115.1 356.8C1123.4 356.8 1128.6 349.7 1132.9 343.9C1134.3 341.9 1136.7 338.7 1138 337.8C1139.6 337.9 1143.4 339.6 1145.8 340.6C1152.2 343.4 1160.2 346.9 1167.2 342.8C1174.2 338.7 1175.2 330 1176 323C1176.3 320.5 1176.7 316.4 1177.4 315C1178.8 314.3 1182.9 313.9 1185.4 313.6C1192.4 312.8 1201.1 311.8 1205.2 304.8C1209.2 297.8 1205.8 289.8 1203 283.4C1202 281.1 1200.3 277.2 1200.2 275.6C1201.2 274.4 1204.4 272 1206.4 270.6ZM1196.9 257.7C1191.8 261.5 1186.5 265.4 1184.8 271.5C1183.1 277.7 1185.9 284.2 1188.4 289.9C1189.4 292.1 1190.3 294.3 1191 296.7C1188.6 297.3 1186.2 297.6 1183.7 297.9C1177.6 298.6 1170.6 299.4 1166.1 303.9C1161.6 308.4 1160.8 315.3 1160.1 321.5C1159.9 324 1159.5 326.4 1158.9 328.8C1156.6 328.1 1154.3 327.2 1152.1 326.2C1146.4 323.7 1140 320.9 1133.7 322.6C1127.6 324.2 1123.7 329.5 1119.9 334.7C1118.4 336.8 1116.8 338.8 1115 340.7C1113.2 338.8 1111.6 336.9 1110.1 334.7C1106.3 329.6 1102.4 324.3 1096.3 322.6C1095 322.3 1093.7 322.1 1092.3 322.1C1087.3 322.1 1082.4 324.3 1077.9 326.2C1075.7 327.2 1073.5 328.1 1071.1 328.8C1070.5 326.4 1070.2 324 1069.9 321.5C1069.2 315.4 1068.4 308.4 1063.9 303.9C1059.4 299.4 1052.5 298.6 1046.3 297.9C1043.8 297.7 1041.4 297.3 1039 296.7C1039.7 294.4 1040.6 292.1 1041.6 289.9C1044.1 284.2 1046.9 277.8 1045.2 271.5C1043.6 265.4 1038.3 261.5 1033.1 257.7C1031 256.2 1029 254.6 1027.1 252.8C1029 251 1030.9 249.4 1033.1 247.9C1038.2 244.1 1043.5 240.2 1045.2 234.1C1046.9 227.9 1044.1 221.4 1041.6 215.7C1040.6 213.5 1039.7 211.3 1039 208.9C1041.4 208.3 1043.8 208 1046.3 207.7C1052.4 207 1059.4 206.2 1063.9 201.7C1068.4 197.2 1069.2 190.3 1069.9 184.1C1070.1 181.6 1070.5 179.2 1071.1 176.8C1073.4 177.5 1075.7 178.4 1077.9 179.4C1083.6 181.9 1090 184.7 1096.3 183C1102.4 181.4 1106.3 176.1 1110.1 170.9C1111.6 168.8 1113.2 166.8 1115 164.9C1116.8 166.8 1118.4 168.7 1119.9 170.9C1123.7 176 1127.6 181.3 1133.7 183C1139.9 184.7 1146.4 181.9 1152.1 179.4C1154.3 178.4 1156.5 177.5 1158.9 176.8C1159.5 179.2 1159.8 181.6 1160.1 184.1C1160.8 190.2 1161.6 197.2 1166.1 201.7C1170.6 206.2 1177.5 207 1183.7 207.7C1186.2 207.9 1188.6 208.3 1191 208.9C1190.3 211.2 1189.4 213.5 1188.4 215.7C1185.9 221.4 1183.1 227.8 1184.8 234.1C1186.4 240.2 1191.7 244.1 1196.9 247.9C1199 249.4 1201 251 1202.9 252.8C1201 254.6 1199 256.2 1196.9 257.7Z" fill="black"/>
<path d="M1081 342.2L1071 344L1065 342.2L1057.3 339L1052 331V327.2L1054.4 322.3L1053.8 317.9L1081 339V342.2Z" fill="black"/>
<path d="M1071.5 352.3L1065 357L1058.7 356.8L1052 352.3L1047.9 347L1044 339L1043.2 334.5V331L1071.5 352.3Z" fill="black"/>
<defs>
<clipPath id="clip0">
<rect width="512" height="512" fill="white" transform="translate(11 147)"/>
</clipPath>
</defs>
</svg>
