<svg xmlns="http://www.w3.org/2000/svg" width="416" height="352" viewBox="0 0 416 352"><defs><style>.a{fill:#4398d1;}.b{fill:#dedede;}.c{fill:#3e8cc7;}.d{fill:#3570ab;}</style></defs><path class="a" d="M416,472H192L0,120H224Z" transform="translate(0 -120)"/><path class="b" d="M0,120v56L160,472h32Z" transform="translate(0 -120)"/><path class="c" d="M148.7,392.62,192,472H416L293.65,247.69Z" transform="translate(0 -120)"/><path class="d" d="M301.22,376l-39.36-72h62.5l-8.72-16H253.12l-39.35-72h62.59l-8.72-16H205L161.3,120H143.06l43.72,80H133L89.3,120H71.06l43.72,80H43.64l8.72,16h71.2l39.35,72H91.71l8.72,16H171.7l39.35,72H139.64l8.72,16h71.36l43.72,80h18.24L238,392h53.76l43.72,80h18.24L310,392h62.4l-8.72-16ZM141.77,216h53.76l39.35,72H181.12Zm87.45,160-39.36-72h53.76L283,376Z" transform="translate(0 -120)"/></svg>