<?xml version="1.0" encoding="utf-8"?>
<!-- Generator: Adobe Illustrator 25.2.1, SVG Export Plug-In . SVG Version: 6.00 Build 0)  -->
<svg version="1.1" id="Layer_1" xmlns="http://www.w3.org/2000/svg" xmlns:xlink="http://www.w3.org/1999/xlink" x="0px" y="0px"
	 viewBox="0 0 512 512" style="enable-background:new 0 0 512 512;" xml:space="preserve">
<style type="text/css">
	.st0{fill:#FFBB85;}
	.st1{fill:#939597;}
	.st2{fill:#F5A86C;}
	.st3{fill:#757677;}
</style>
<path class="st0" d="M375.7,123.3c0,33.9-12.2,63.2-36.1,87.2c-24,24-53.3,36.1-87.2,36.1h-0.1c-33.8,0-63.2-12.2-87.1-36.1
	c-24-24-36.1-53.3-36.1-87.2c0-33.9,12.1-63.2,36.1-87.2c24-24,53.3-36.1,87.1-36.1h0.1c33.9,0,63.2,12.2,87.2,36.1
	C363.5,60.1,375.7,89.4,375.7,123.3z"/>
<path class="st1" d="M469.2,423.9c0,26.7-8.5,48.4-25.3,64.3C427.4,504,405.5,512,378.8,512H132.3c-26.6,0-48.5-8-65.1-23.7
	c-16.8-16-25.3-37.6-25.3-64.3c0-10.3,0.3-20.5,1-30.2c0.7-10,2.1-20.9,4.2-32.4c2.1-11.6,4.8-22.5,7.9-32.5
	c3.3-10.4,7.8-20.6,13.4-30.3c5.8-10.2,12.6-19,20.2-26.3c8-7.6,17.7-13.7,29-18.2c11.2-4.4,23.7-6.7,37-6.7c5.2,0,10.3,2.1,20,8.5
	c6.1,4,13.1,8.5,20.9,13.5c6.7,4.3,15.8,8.3,27,11.9c9.9,3.2,19.9,5,29.8,5.3c1.1,0,2.2,0.1,3.3,0.1c11,0,22.1-1.8,33-5.3
	c11.2-3.6,20.3-7.6,27-11.9c7.8-5,14.9-9.5,20.9-13.5c9.8-6.4,14.8-8.5,20-8.5c13.3,0,25.7,2.2,37,6.7c11.3,4.5,21,10.6,29,18.2
	c7.6,7.3,14.4,16.1,20.2,26.3c5.6,9.8,10.1,20,13.4,30.3c3.2,10,5.9,21,8,32.5c2.1,11.5,3.5,22.4,4.1,32.3
	C468.8,403.5,469.2,413.6,469.2,423.9z"/>
<path class="st2" d="M252.4,246.6L252.4,246.6L252.3,0h0.1c33.9,0,63.2,12.2,87.2,36.1c24,24,36.1,53.3,36.1,87.2
	c0,33.9-12.2,63.2-36.1,87.2C315.6,234.5,286.2,246.6,252.4,246.6z"/>
<path class="st3" d="M469.2,423.9c0,26.7-8.5,48.4-25.3,64.3C427.4,504,405.5,512,378.8,512H252.3V286.5c1.1,0,2.2,0.1,3.3,0.1
	c11,0,22.1-1.8,33-5.3c11.2-3.6,20.3-7.6,27-11.9c7.8-5,14.9-9.5,20.9-13.5c9.8-6.4,14.8-8.5,20-8.5c13.3,0,25.7,2.2,37,6.7
	c11.3,4.5,21,10.6,29,18.2c7.6,7.3,14.4,16.1,20.2,26.3c5.6,9.8,10.1,20,13.4,30.3c3.2,10,5.9,21,8,32.5c2.1,11.5,3.5,22.4,4.1,32.3
	C468.8,403.5,469.2,413.6,469.2,423.9z"/>
</svg>
