<svg xmlns="http://www.w3.org/2000/svg" width="197.95" height="36.09" viewBox="0 0 197.95 36.09"><defs><style>.a{fill:#f5df4d;}.b{fill:#ff9000;}.c{fill:#fcbe00;}.d{fill:#fff5f5;}</style></defs><path class="a" d="M61.89,19.38h-7v5.25h8.19V27H51.92V9.94H63v2.39H54.89V17h7ZM68.25,27H65.4V9h2.85Zm8.69.23a5.92,5.92,0,0,1-4.39-1.69A6.23,6.23,0,0,1,70.87,21v-.35a7.54,7.54,0,0,1,.73-3.39,5.57,5.57,0,0,1,2.06-2.33,5.39,5.39,0,0,1,3-.83,5,5,0,0,1,4,1.65A7,7,0,0,1,82,20.41v1.15H73.74a3.86,3.86,0,0,0,1.05,2.49,3.15,3.15,0,0,0,2.32.91,3.86,3.86,0,0,0,3.18-1.58l1.54,1.46a5.16,5.16,0,0,1-2,1.77A6.28,6.28,0,0,1,76.94,27.23ZM76.6,16.37a2.42,2.42,0,0,0-1.9.82,4.32,4.32,0,0,0-.91,2.29h5.42v-.21a3.38,3.38,0,0,0-.76-2.16A2.37,2.37,0,0,0,76.6,16.37ZM89.46,25a2.6,2.6,0,0,0,1.77-.62A2.11,2.11,0,0,0,92,22.8h2.68A4.23,4.23,0,0,1,93.92,25a4.85,4.85,0,0,1-1.87,1.62,5.57,5.57,0,0,1-2.56.59,5.41,5.41,0,0,1-4.22-1.72,6.83,6.83,0,0,1-1.56-4.76v-.29a6.71,6.71,0,0,1,1.55-4.63,5.36,5.36,0,0,1,4.22-1.74,5.19,5.19,0,0,1,3.68,1.32,4.73,4.73,0,0,1,1.5,3.46H92a2.6,2.6,0,0,0-.75-1.8,2.4,2.4,0,0,0-1.77-.7,2.52,2.52,0,0,0-2.14,1,5.07,5.07,0,0,0-.76,3v.46A5.26,5.26,0,0,0,87.3,24,2.54,2.54,0,0,0,89.46,25Zm10.92-13.72v3.08h2.24v2.11h-2.24v7.08a1.59,1.59,0,0,0,.28,1,1.38,1.38,0,0,0,1,.32,4.34,4.34,0,0,0,1-.12V27a7.06,7.06,0,0,1-1.88.27c-2.19,0-3.28-1.2-3.28-3.62V16.43H95.45V14.32h2.08V11.24Zm11.06,5.68a7.27,7.27,0,0,0-1.16-.09,2.63,2.63,0,0,0-2.64,1.5V27H104.8V14.32h2.72l.07,1.42a3.2,3.2,0,0,1,2.85-1.65,2.64,2.64,0,0,1,1,.16ZM116.27,27h-2.85V14.32h2.85Zm-3-16a1.49,1.49,0,0,1,.41-1.09,1.84,1.84,0,0,1,2.39,0,1.61,1.61,0,0,1,0,2.17,1.91,1.91,0,0,1-2.39,0A1.49,1.49,0,0,1,113.25,11Zm7.13,16V16.43h-1.93V14.32h1.93V13.16a4.33,4.33,0,0,1,1.18-3.26,4.5,4.5,0,0,1,3.28-1.15,6.56,6.56,0,0,1,1.59.21l-.07,2.23a5.85,5.85,0,0,0-1.09-.09,1.83,1.83,0,0,0-2,2.1v1.12h2.58v2.11h-2.58V27Zm11.94-4.08,2.58-8.6h3l-5,14.6q-1.17,3.2-3.94,3.2a5.14,5.14,0,0,1-1.37-.21v-2.2l.54,0a2.69,2.69,0,0,0,1.62-.4,2.53,2.53,0,0,0,.86-1.31l.41-1.09-4.45-12.62h3.07Zm22.43-.31a2.07,2.07,0,0,0-.79-1.74,9.38,9.38,0,0,0-2.85-1.23,13.39,13.39,0,0,1-3.28-1.38,4.37,4.37,0,0,1-2.33-3.82,4.14,4.14,0,0,1,1.67-3.4,6.84,6.84,0,0,1,4.37-1.34,7.35,7.35,0,0,1,3.18.66,5.21,5.21,0,0,1,2.19,1.87,4.8,4.8,0,0,1,.8,2.69h-3a2.66,2.66,0,0,0-.84-2.09,3.41,3.41,0,0,0-2.39-.76,3.66,3.66,0,0,0-2.26.62,2.09,2.09,0,0,0-.8,1.74,1.9,1.9,0,0,0,.87,1.57,10.13,10.13,0,0,0,2.86,1.21,13.19,13.19,0,0,1,3.2,1.35,5.09,5.09,0,0,1,1.77,1.74,4.53,4.53,0,0,1,.56,2.28,4.08,4.08,0,0,1-1.64,3.4,7.07,7.07,0,0,1-4.43,1.25,8.31,8.31,0,0,1-3.41-.68,5.86,5.86,0,0,1-2.42-1.89,4.77,4.77,0,0,1-.85-2.82h3a2.74,2.74,0,0,0,1,2.25,4.19,4.19,0,0,0,2.75.8,3.69,3.69,0,0,0,2.32-.62A2,2,0,0,0,154.75,22.61Zm4.76-2.07a7.46,7.46,0,0,1,.74-3.35,5.39,5.39,0,0,1,2.07-2.3,5.92,5.92,0,0,1,3.08-.8,5.51,5.51,0,0,1,4.15,1.65,6.5,6.5,0,0,1,1.74,4.38v.67a7.4,7.4,0,0,1-.73,3.35,5.27,5.27,0,0,1-2.06,2.29,5.93,5.93,0,0,1-3.09.8,5.52,5.52,0,0,1-4.3-1.78,6.87,6.87,0,0,1-1.61-4.77Zm2.85.25a5.13,5.13,0,0,0,.81,3.07,2.65,2.65,0,0,0,2.25,1.1,2.6,2.6,0,0,0,2.24-1.12,5.62,5.62,0,0,0,.8-3.3,5,5,0,0,0-.83-3,2.77,2.77,0,0,0-4.45,0A5.51,5.51,0,0,0,162.36,20.79ZM176.74,27h-2.85V9h2.85Zm10.69,0a4.1,4.1,0,0,1-.33-1.18,4.81,4.81,0,0,1-6.45.32,3.48,3.48,0,0,1-1.2-2.69,3.6,3.6,0,0,1,1.5-3.11,7.31,7.31,0,0,1,4.31-1.09H187v-.83a2.2,2.2,0,0,0-.55-1.57,2.14,2.14,0,0,0-1.67-.6,2.51,2.51,0,0,0-1.6.5,1.5,1.5,0,0,0-.62,1.23h-2.85a3.15,3.15,0,0,1,.7-1.95,4.61,4.61,0,0,1,1.87-1.43,6.71,6.71,0,0,1,2.66-.51,5.28,5.28,0,0,1,3.55,1.12,3.94,3.94,0,0,1,1.36,3.14v5.72a6.49,6.49,0,0,0,.48,2.73V27ZM184.3,25a3.24,3.24,0,0,0,1.58-.41,2.7,2.7,0,0,0,1.12-1.1V21.05h-1.53a4.16,4.16,0,0,0-2.38.55,1.77,1.77,0,0,0-.8,1.56,1.7,1.7,0,0,0,.54,1.31A2.17,2.17,0,0,0,184.3,25Zm15.17-8a7.27,7.27,0,0,0-1.16-.09,2.6,2.6,0,0,0-2.63,1.5V27h-2.85V14.32h2.72l.07,1.42a3.2,3.2,0,0,1,2.86-1.65,2.62,2.62,0,0,1,1,.16Z" transform="translate(-1.53 -1.46)"/><path class="b" d="M35,22.69l4.46-3.19L35,16.31a2.51,2.51,0,0,1-.9-1.23,2.4,2.4,0,0,1,0-1.52l1.72-5.21-5.48,0A2.45,2.45,0,0,1,28,6.69L26.36,1.46,22,4.72a2.47,2.47,0,0,1-2.9,0L14.64,1.46,13,6.69a2.45,2.45,0,0,1-2.34,1.7l-5.48,0,1.72,5.21a2.4,2.4,0,0,1,0,1.52A2.51,2.51,0,0,1,6,16.31L1.53,19.5,6,22.69a2.51,2.51,0,0,1,.9,1.23,2.4,2.4,0,0,1,0,1.52L5.16,30.65l5.48,0A2.45,2.45,0,0,1,13,32.31l1.66,5.23,4.41-3.25a2.43,2.43,0,0,1,2.9,0l4.41,3.25L28,32.31a2.45,2.45,0,0,1,2.34-1.7l5.48,0-1.72-5.21a2.4,2.4,0,0,1,0-1.52,2.51,2.51,0,0,1,.9-1.23Z" transform="translate(-1.53 -1.46)"/><path class="c" d="M24.56,28.41a9.81,9.81,0,1,0-13-4.86A9.8,9.8,0,0,0,24.56,28.41Z" transform="translate(-1.53 -1.46)"/><path class="d" d="M23.78,19.5H21.65V14.27L17.22,19.5h2.13v5.23Z" transform="translate(-1.53 -1.46)"/></svg>